<?xml version="1.0" encoding="utf-8"?>
<!-- Generator: Adobe Illustrator 28.1.0, SVG Export Plug-In . SVG Version: 6.00 Build 0)  -->
<svg version="1.1" id="Outline" xmlns="http://www.w3.org/2000/svg" xmlns:xlink="http://www.w3.org/1999/xlink" x="0px" y="0px"
	 viewBox="0 0 512 512" style="enable-background:new 0 0 512 512;" xml:space="preserve">
<path d="M392.5,100h-9.9L340,44.8c-11.1-14.3-28.2-22.7-46.3-22.8h-75.3c-18.1,0.1-35.2,8.5-46.3,22.8L129.4,100h-9.9
	c-53.8,0.1-97.4,43.7-97.5,97.5v195c0.1,53.8,43.7,97.4,97.5,97.5h273c53.8-0.1,97.4-43.7,97.5-97.5v-195
	C489.9,143.7,446.3,100.1,392.5,100z M202.9,68.6c3.7-4.8,9.4-7.6,15.4-7.6h75.3c6,0,11.7,2.8,15.4,7.6l24.2,31.4H178.7L202.9,68.6z
	 M451,392.5c0,32.3-26.2,58.5-58.5,58.5h-273C87.2,451,61,424.8,61,392.5v-195c0-32.3,26.2-58.5,58.5-58.5h273
	c32.3,0,58.5,26.2,58.5,58.5V392.5z"/>
<path d="M256,178c-64.6,0-117,52.4-117,117s52.4,117,117,117s117-52.4,117-117C372.9,230.4,320.6,178.1,256,178z M256,373
	c-43.1,0-78-34.9-78-78s34.9-78,78-78s78,34.9,78,78S299.1,373,256,373z"/>
</svg>
