<?xml version="1.0" encoding="utf-8"?>
<!-- Generator: Adobe Illustrator 28.1.0, SVG Export Plug-In . SVG Version: 6.00 Build 0)  -->
<svg version="1.1" id="Layer_1" xmlns="http://www.w3.org/2000/svg" xmlns:xlink="http://www.w3.org/1999/xlink" x="0px" y="0px"
	 viewBox="0 0 24 24" style="enable-background:new 0 0 24 24;" xml:space="preserve">
<g>
	<path d="M15.1,21.7l-1.7-2.5c-0.5,0.1-1,0.1-1.5,0.1c-1.5,0-2.9-0.4-4.2-1.1c-1.3-0.7-2.3-1.7-3-3C3.9,14,3.5,12.6,3.5,11
		c0-1.6,0.4-3,1.1-4.3c0.7-1.3,1.8-2.3,3-3C9,3,10.4,2.6,11.9,2.6c1.5,0,2.9,0.4,4.2,1.1c1.3,0.7,2.3,1.7,3,3
		c0.7,1.3,1.1,2.7,1.1,4.3c0,1.3-0.3,2.6-0.8,3.7c-0.5,1.1-1.3,2.1-2.2,2.8l2.8,3.6c0.3,0.3,0,0.8-0.4,0.8h-4.1
		C15.3,21.9,15.2,21.8,15.1,21.7z M9.1,14c0.7,0.7,1.6,1.1,2.8,1.1c1.2,0,2.1-0.4,2.7-1.1c0.7-0.8,1-1.8,1-3c0-1.3-0.3-2.3-1-3.1
		c-0.7-0.7-1.6-1.1-2.7-1.1c-1.2,0-2.1,0.4-2.8,1.1s-1,1.8-1,3.1C8.1,12.2,8.5,13.2,9.1,14z"/>
</g>
</svg>
